<svg xmlns="http://www.w3.org/2000/svg" version="1.1" xmlns:xlink="http://www.w3.org/1999/xlink" width="1000" height="1000"><style>
    #light-icon {
      display: inline;
    }
    #dark-icon {
      display: none;
    }

    @media (prefers-color-scheme: dark) {
      #light-icon {
        display: none;
      }
      #dark-icon {
        display: inline;
      }
    }
  </style><g id="light-icon"><svg xmlns="http://www.w3.org/2000/svg" version="1.1" xmlns:xlink="http://www.w3.org/1999/xlink" width="1000" height="1000"><g><g transform="matrix(41.666666666666664,0,0,41.666666666666664,0,0)"><svg xmlns="http://www.w3.org/2000/svg" version="1.1" xmlns:xlink="http://www.w3.org/1999/xlink" width="24" height="24"><svg id="_Слой_1" xmlns="http://www.w3.org/2000/svg" version="1.1" viewBox="0 0 24 24">
  <!-- Generator: Adobe Illustrator 29.5.1, SVG Export Plug-In . SVG Version: 2.1.0 Build 141)  -->
  <path d="M11.98,9.36l.74-1c1.57-1.72,4.06-.41,3.67,1.86-.2,1.15-1.18,2.34-1.89,3.24-.79,1.01-1.66,1.99-2.49,2.97-.73-.88-1.49-1.74-2.21-2.64-1.09-1.36-3-3.43-1.89-5.26,1.13-1.87,3.36-.78,4.07.82Z"></path>
</svg></svg></g></g></svg></g><g id="dark-icon"><svg xmlns="http://www.w3.org/2000/svg" version="1.1" xmlns:xlink="http://www.w3.org/1999/xlink" width="1000" height="1000"><g><g transform="matrix(41.666666666666664,0,0,41.666666666666664,0,0)"><svg xmlns="http://www.w3.org/2000/svg" version="1.1" xmlns:xlink="http://www.w3.org/1999/xlink" width="24" height="24"><svg id="_Слой_1" xmlns="http://www.w3.org/2000/svg" version="1.1" viewBox="0 0 24 24">
  <!-- Generator: Adobe Illustrator 29.5.1, SVG Export Plug-In . SVG Version: 2.1.0 Build 141)  -->
  <defs>
    <style>
      .st0 {
        fill: #fff;
      }
    </style>
  </defs>
  <path class="st0" d="M11.98,9.36l.74-1c1.57-1.72,4.06-.41,3.67,1.86-.2,1.15-1.18,2.34-1.89,3.24-.79,1.01-1.66,1.99-2.49,2.97-.73-.88-1.49-1.74-2.21-2.64-1.09-1.36-3-3.43-1.89-5.26,1.13-1.87,3.36-.78,4.07.82Z"></path>
</svg></svg></g></g></svg></g></svg>