<svg width="218" height="54" viewBox="0 0 218 54" fill="none" xmlns="http://www.w3.org/2000/svg">
<path d="M215.867 33.1999C215.701 33.1999 215.551 33.1332 215.417 32.9999C214.517 32.0666 214.051 30.6999 214.017 28.8999C214.017 28.7666 214.034 28.6166 214.067 28.4499C214.101 28.2499 214.117 28.0332 214.117 27.7999L214.167 26.7499V26.5999C214.167 25.9999 213.951 25.7832 213.517 25.9499C212.851 26.4166 211.951 27.0999 210.817 27.9999C209.717 28.8666 208.384 29.9332 206.817 31.1999C206.151 31.8332 205.301 32.1499 204.267 32.1499C203.667 32.1499 203.151 31.8332 202.717 31.1999C202.317 30.5332 202.167 29.8999 202.267 29.2999C202.367 28.4332 202.717 27.4999 203.317 26.4999C203.917 25.4666 204.651 24.4499 205.517 23.4499C206.417 22.4166 207.367 21.5166 208.367 20.7499C209.401 19.9499 210.384 19.3832 211.317 19.0499C211.684 18.9166 212.034 18.8166 212.367 18.7499C212.701 18.6832 213.034 18.6499 213.367 18.6499C214.801 18.6499 215.517 19.1499 215.517 20.1499C215.517 20.4832 215.384 20.6499 215.117 20.6499C215.017 20.6499 214.917 20.6499 214.817 20.6499C214.717 20.6166 214.617 20.5666 214.517 20.4999C213.917 19.9999 213.367 19.7499 212.867 19.7499C212.367 19.7499 211.634 20.0499 210.667 20.6499C209.901 21.1166 209.151 21.6999 208.417 22.3999C207.684 23.0999 206.984 23.8832 206.317 24.7499C205.684 25.5832 205.184 26.3332 204.817 26.9999C204.451 27.6332 204.234 28.1999 204.167 28.6999C204.134 28.8332 204.117 28.9999 204.117 29.1999C204.117 29.7332 204.334 29.9999 204.767 29.9999C205.301 29.9999 206.301 29.5166 207.767 28.5499C211.267 26.2166 213.701 24.1499 215.067 22.3499C215.401 21.9166 215.701 21.3332 215.967 20.5999C216.134 20.1332 216.484 19.8999 217.017 19.8999C217.617 19.8999 217.917 20.2332 217.917 20.8999C217.917 21.4332 217.667 22.0999 217.167 22.8999C216.367 25.3332 215.967 27.0166 215.967 27.9499C216.034 29.3832 216.384 30.5332 217.017 31.3999C217.117 31.4999 217.167 31.6332 217.167 31.7999C217.167 32.0999 217.017 32.3999 216.717 32.6999C216.417 33.0332 216.134 33.1999 215.867 33.1999Z" fill="white"/>
<path d="M186.429 32.2501C185.929 32.2501 185.746 31.8001 185.879 30.9001C185.979 29.7334 186.146 28.3001 186.379 26.6001C186.646 24.8668 186.962 22.8668 187.329 20.6001C187.496 20.1001 187.762 19.8501 188.129 19.8501C188.596 19.8501 188.829 20.0668 188.829 20.5001C188.829 20.5334 188.829 20.6001 188.829 20.7001C188.829 20.7668 188.812 20.8501 188.779 20.9501C188.712 21.2501 188.646 21.5834 188.579 21.9501C188.546 22.2834 188.529 22.6501 188.529 23.0501C188.529 23.5168 188.546 24.0168 188.579 24.5501C188.646 25.0834 188.746 25.6501 188.879 26.2501C189.079 26.2501 189.896 25.5334 191.329 24.1001C192.762 22.7334 193.929 21.9168 194.829 21.6501V21.6001C194.929 21.5668 195.029 21.5501 195.129 21.5501C195.229 21.5501 195.312 21.5501 195.379 21.5501C196.012 21.5501 196.429 21.8501 196.629 22.4501L197.329 27.1001C197.629 29.1334 198.179 30.1501 198.979 30.1501C199.312 30.1501 199.646 30.0334 199.979 29.8001C200.446 29.4668 200.896 29.1168 201.329 28.7501C201.762 28.3501 202.146 27.9334 202.479 27.5001C202.679 27.4334 202.812 27.4001 202.879 27.4001C203.112 27.4001 203.229 27.5501 203.229 27.8501C203.229 28.0501 203.096 28.3168 202.829 28.6501C202.396 29.1834 201.946 29.7334 201.479 30.3001C201.012 30.8334 200.546 31.2501 200.079 31.5501C199.446 31.9168 198.912 32.1001 198.479 32.1001C197.579 32.1001 196.896 31.3668 196.429 29.9001L195.579 25.8501C195.279 24.4834 194.896 23.8668 194.429 24.0001C194.396 24.0001 194.346 24.0001 194.279 24.0001C194.246 23.9668 194.196 23.9501 194.129 23.9501C193.996 23.9501 193.829 23.9834 193.629 24.0501C193.462 24.1168 193.296 24.2334 193.129 24.4001L191.929 25.6501C190.896 26.7168 190.029 27.7501 189.329 28.7501C188.629 29.7501 188.062 30.6834 187.629 31.5501C187.362 32.0168 186.962 32.2501 186.429 32.2501Z" fill="white"/>
<path d="M180.32 33.1999C180.154 33.1999 180.004 33.1332 179.87 32.9999C178.97 32.0666 178.504 30.6999 178.47 28.8999C178.47 28.7666 178.487 28.6166 178.52 28.4499C178.554 28.2499 178.57 28.0332 178.57 27.7999L178.62 26.7499V26.5999C178.62 25.9999 178.404 25.7832 177.97 25.9499C177.304 26.4166 176.404 27.0999 175.27 27.9999C174.17 28.8666 172.837 29.9332 171.27 31.1999C170.604 31.8332 169.754 32.1499 168.72 32.1499C168.12 32.1499 167.604 31.8332 167.17 31.1999C166.77 30.5332 166.62 29.8999 166.72 29.2999C166.82 28.4332 167.17 27.4999 167.77 26.4999C168.37 25.4666 169.104 24.4499 169.97 23.4499C170.87 22.4166 171.82 21.5166 172.82 20.7499C173.854 19.9499 174.837 19.3832 175.77 19.0499C176.137 18.9166 176.487 18.8166 176.82 18.7499C177.154 18.6832 177.487 18.6499 177.82 18.6499C179.254 18.6499 179.97 19.1499 179.97 20.1499C179.97 20.4832 179.837 20.6499 179.57 20.6499C179.47 20.6499 179.37 20.6499 179.27 20.6499C179.17 20.6166 179.07 20.5666 178.97 20.4999C178.37 19.9999 177.82 19.7499 177.32 19.7499C176.82 19.7499 176.087 20.0499 175.12 20.6499C174.354 21.1166 173.604 21.6999 172.87 22.3999C172.137 23.0999 171.437 23.8832 170.77 24.7499C170.137 25.5832 169.637 26.3332 169.27 26.9999C168.904 27.6332 168.687 28.1999 168.62 28.6999C168.587 28.8332 168.57 28.9999 168.57 29.1999C168.57 29.7332 168.787 29.9999 169.22 29.9999C169.754 29.9999 170.754 29.5166 172.22 28.5499C175.72 26.2166 178.154 24.1499 179.52 22.3499C179.854 21.9166 180.154 21.3332 180.42 20.5999C180.587 20.1332 180.937 19.8999 181.47 19.8999C182.07 19.8999 182.37 20.2332 182.37 20.8999C182.37 21.4332 182.12 22.0999 181.62 22.8999C180.82 25.3332 180.42 27.0166 180.42 27.9499C180.487 29.3832 180.837 30.5332 181.47 31.3999C181.57 31.4999 181.62 31.6332 181.62 31.7999C181.62 32.0999 181.47 32.3999 181.17 32.6999C180.87 33.0332 180.587 33.1999 180.32 33.1999Z" fill="white"/>
<path d="M163.526 16.0502C163.026 16.0502 162.793 15.7502 162.826 15.1502L163.326 13.2502C163.426 12.8835 163.66 12.7002 164.026 12.7002C164.793 12.7002 165.11 13.0169 164.976 13.6502C164.943 14.1169 164.826 14.6335 164.626 15.2002C164.426 15.7669 164.06 16.0502 163.526 16.0502ZM161.776 31.8002C161.476 31.8002 161.276 31.6669 161.176 31.4002C161.043 31.0335 160.96 30.5835 160.926 30.0502C160.893 29.5169 160.893 28.9169 160.926 28.2502C160.993 27.4835 161.176 26.5169 161.476 25.3502C161.81 24.1835 162.26 22.8335 162.826 21.3002C162.96 20.9669 163.193 20.8002 163.526 20.8002C164.16 20.8002 164.376 21.0835 164.176 21.6502C164.043 22.0835 163.926 22.5169 163.826 22.9502C163.726 23.3835 163.626 23.8169 163.526 24.2502C163.36 25.0169 163.226 25.7002 163.126 26.3002C163.026 26.9002 162.976 27.4335 162.976 27.9002C162.976 29.5335 162.993 30.3835 163.026 30.4502C163.126 30.7835 163.026 31.1002 162.726 31.4002C162.426 31.6669 162.11 31.8002 161.776 31.8002Z" fill="white"/>
<path d="M150.124 32.2501C149.791 32.2501 149.574 31.8668 149.474 31.1001C149.374 30.3001 149.324 29.4834 149.324 28.6501C149.324 28.1168 149.324 27.6334 149.324 27.2001C149.358 26.7334 149.374 26.3834 149.374 26.1501C149.374 25.8168 149.391 25.4001 149.424 24.9001C149.458 24.3668 149.508 23.7668 149.574 23.1001C149.674 21.7334 149.724 20.7001 149.724 20.0001C149.724 19.6668 149.708 19.3501 149.674 19.0501C149.641 18.7168 149.624 18.4168 149.624 18.1501V17.9501C149.624 17.5501 149.841 17.3501 150.274 17.3501C150.608 17.3501 150.791 17.5501 150.824 17.9501C150.891 18.3168 150.941 19.0668 150.974 20.2001C151.008 21.3334 151.041 22.8334 151.074 24.7001C151.074 25.2001 151.174 25.4501 151.374 25.4501C151.608 25.4501 151.958 25.0668 152.424 24.3001C153.391 22.7001 154.441 21.3501 155.574 20.2501C156.408 19.4834 157.174 19.1001 157.874 19.1001C158.708 19.1001 159.424 19.4668 160.024 20.2001C160.224 20.4334 160.324 20.6834 160.324 20.9501C160.324 21.3834 160.141 21.6001 159.774 21.6001C159.641 21.6001 159.491 21.5501 159.324 21.4501L159.274 21.5001C158.641 21.0334 158.224 20.8001 158.024 20.8001C157.224 20.8001 156.474 21.2334 155.774 22.1001C153.341 25.1001 151.841 28.1334 151.274 31.2001C151.141 31.9001 150.758 32.2501 150.124 32.2501Z" fill="white"/>
<path d="M143.016 33.1999C142.849 33.1999 142.699 33.1332 142.566 32.9999C141.666 32.0666 141.199 30.6999 141.166 28.8999C141.166 28.7666 141.182 28.6166 141.216 28.4499C141.249 28.2499 141.266 28.0332 141.266 27.7999L141.316 26.7499V26.5999C141.316 25.9999 141.099 25.7832 140.666 25.9499C139.999 26.4166 139.099 27.0999 137.966 27.9999C136.866 28.8666 135.532 29.9332 133.966 31.1999C133.299 31.8332 132.449 32.1499 131.416 32.1499C130.816 32.1499 130.299 31.8332 129.866 31.1999C129.466 30.5332 129.316 29.8999 129.416 29.2999C129.516 28.4332 129.866 27.4999 130.466 26.4999C131.066 25.4666 131.799 24.4499 132.666 23.4499C133.566 22.4166 134.516 21.5166 135.516 20.7499C136.549 19.9499 137.532 19.3832 138.466 19.0499C138.832 18.9166 139.182 18.8166 139.516 18.7499C139.849 18.6832 140.182 18.6499 140.516 18.6499C141.949 18.6499 142.666 19.1499 142.666 20.1499C142.666 20.4832 142.532 20.6499 142.266 20.6499C142.166 20.6499 142.066 20.6499 141.966 20.6499C141.866 20.6166 141.766 20.5666 141.666 20.4999C141.066 19.9999 140.516 19.7499 140.016 19.7499C139.516 19.7499 138.782 20.0499 137.816 20.6499C137.049 21.1166 136.299 21.6999 135.566 22.3999C134.832 23.0999 134.132 23.8832 133.466 24.7499C132.832 25.5832 132.332 26.3332 131.966 26.9999C131.599 27.6332 131.382 28.1999 131.316 28.6999C131.282 28.8332 131.266 28.9999 131.266 29.1999C131.266 29.7332 131.482 29.9999 131.916 29.9999C132.449 29.9999 133.449 29.5166 134.916 28.5499C138.416 26.2166 140.849 24.1499 142.216 22.3499C142.549 21.9166 142.849 21.3332 143.116 20.5999C143.282 20.1332 143.632 19.8999 144.166 19.8999C144.766 19.8999 145.066 20.2332 145.066 20.8999C145.066 21.4332 144.816 22.0999 144.316 22.8999C143.516 25.3332 143.116 27.0166 143.116 27.9499C143.182 29.3832 143.532 30.5332 144.166 31.3999C144.266 31.4999 144.316 31.6332 144.316 31.7999C144.316 32.0999 144.166 32.3999 143.866 32.6999C143.566 33.0332 143.282 33.1999 143.016 33.1999Z" fill="white"/>
<path d="M124.427 36.0001C123.294 36.0334 122.394 35.2168 121.727 33.5501C121.094 31.8834 120.777 29.3834 120.777 26.0501C120.777 24.1501 120.927 22.0334 121.227 19.7001C121.561 17.3334 122.044 14.7334 122.677 11.9001C124.311 4.36677 126.277 0.600098 128.577 0.600098C129.477 0.600098 130.127 1.41676 130.527 3.0501C130.827 4.28343 130.927 5.4001 130.827 6.4001C130.494 9.63343 128.577 14.0668 125.077 19.7001C124.844 19.9668 124.561 20.3168 124.227 20.7501C123.927 21.1834 123.561 21.7001 123.127 22.3001C123.061 23.0668 122.994 23.8168 122.927 24.5501C122.894 25.2834 122.877 25.9834 122.877 26.6501C122.877 27.8501 122.977 29.0834 123.177 30.3501C123.544 32.3168 124.094 33.3001 124.827 33.3001C125.527 33.3001 126.227 32.8501 126.927 31.9501L128.377 29.6001C128.544 29.3334 128.761 29.2001 129.027 29.2001C129.361 29.2001 129.527 29.3668 129.527 29.7001C129.527 29.7668 129.511 29.8334 129.477 29.9001C129.477 29.9668 129.461 30.0334 129.427 30.1001C129.061 30.9334 128.727 31.6501 128.427 32.2501C128.161 32.8168 127.911 33.2668 127.677 33.6001C126.644 35.2001 125.561 36.0001 124.427 36.0001ZM128.527 3.1001C126.227 4.1001 124.511 9.6001 123.377 19.6001C123.477 19.5001 123.627 19.3001 123.827 19.0001C127.527 13.7334 129.377 9.53343 129.377 6.4001C129.377 6.16676 129.361 5.91677 129.327 5.6501C129.294 5.3501 129.244 5.01676 129.177 4.6501C128.977 3.7501 128.761 3.23343 128.527 3.1001Z" fill="white"/>
<path d="M114.609 33.6499C113.143 33.6499 111.943 33.1999 111.009 32.2999C110.109 31.3999 109.659 30.1832 109.659 28.6499C109.659 28.3166 109.676 27.9832 109.709 27.6499C109.776 27.3166 109.843 26.9832 109.909 26.6499C110.276 25.2166 111.293 23.6832 112.959 22.0499C114.826 20.2832 116.443 19.3999 117.809 19.3999C118.943 19.3999 119.476 20.0332 119.409 21.2999C119.376 22.9332 118.476 24.5332 116.709 26.0999C115.943 26.7332 115.143 27.3166 114.309 27.8499C113.509 28.3832 112.659 28.6499 111.759 28.6499H111.709C111.809 30.8166 112.926 31.8999 115.059 31.8999C115.759 31.8999 116.543 31.7332 117.409 31.3999C117.476 31.3666 117.576 31.3499 117.709 31.3499C118.143 31.3499 118.359 31.5666 118.359 31.9999C118.359 32.2999 118.209 32.5332 117.909 32.6999C116.976 33.3332 115.876 33.6499 114.609 33.6499ZM113.059 26.2999C114.093 26.0666 114.976 25.6332 115.709 24.9999C117.009 23.8999 117.659 22.8499 117.659 21.8499V21.7499C117.659 21.5166 117.576 21.3332 117.409 21.1999C117.243 21.0666 117.126 21.0332 117.059 21.0999C116.026 21.0999 114.926 21.8499 113.759 23.3499C113.593 23.5832 113.393 23.8999 113.159 24.2999C112.926 24.6666 112.676 25.1166 112.409 25.6499C112.376 25.7166 112.359 25.7832 112.359 25.8499C112.359 26.1499 112.593 26.2999 113.059 26.2999Z" fill="white"/>
<path d="M92.7822 36.7C92.6156 36.7 92.4489 36.6833 92.2822 36.65C92.1489 36.65 92.0156 36.6333 91.8822 36.6L90.1822 35.75C89.9156 35.6167 89.7822 35.3333 89.7822 34.9C89.7822 33.9667 90.0656 33.5 90.6322 33.5C90.7989 33.5 91.0656 33.6333 91.4322 33.9C91.7989 34.1667 92.0489 34.3 92.1822 34.3H92.2322C92.5322 34.3 92.9489 34.2833 93.4822 34.25C94.0156 34.2167 94.6822 34.1 95.4822 33.9C97.3822 33.4 99.2322 32.55 101.032 31.35C101.332 31.15 102.649 29.8833 104.982 27.55C105.149 27.2833 105.332 26.95 105.532 26.55C105.732 26.1167 105.949 25.6167 106.182 25.05C106.216 24.65 105.816 23.8833 104.982 22.75C104.382 21.95 104.032 21.5 103.932 21.4C103.799 21.3 103.632 21.1833 103.432 21.05C103.232 20.9167 102.966 20.7833 102.632 20.65L101.882 20.3L101.232 20.35C100.966 20.1833 100.632 20.0833 100.232 20.05C99.7322 20.05 99.3322 19.9833 99.0322 19.85C98.8989 19.8167 98.7322 19.7667 98.5322 19.7C98.1989 19.5667 97.9989 19.3 97.9322 18.9L97.8822 18.85C97.8489 18.45 97.9989 17.7833 98.3322 16.85C98.6989 16.6167 99.1156 16.35 99.5822 16.05C100.049 15.75 100.582 15.4 101.182 15C101.482 14.8333 101.866 14.6 102.332 14.3C102.832 13.9667 103.382 13.5333 103.982 13L104.832 12.25C104.866 12.2167 104.982 12.1333 105.182 12C105.416 11.8333 105.582 11.6167 105.682 11.35L106.182 10.6L106.432 10.15C106.632 9.78333 106.732 9.55 106.732 9.45L106.582 8.5V8.45C106.582 8.25 106.382 8.08333 105.982 7.95C105.249 7.75 104.799 7.6 104.632 7.5C104.366 7.33333 103.899 7.1 103.232 6.8C102.566 6.46667 101.716 6.06667 100.682 5.6C99.0822 4.86666 97.8156 4.11667 96.8822 3.35C96.5822 3.08333 96.1822 2.65 95.6822 2.05C95.4822 1.88333 95.3822 1.63333 95.3822 1.3C95.3822 0.999998 95.4822 0.716665 95.6822 0.45C95.8822 0.15 96.0822 0 96.2822 0C96.3489 0 96.4489 0.0333327 96.5822 0.0999985C96.9822 0.399999 97.3489 0.799999 97.6822 1.3C98.1489 1.5 98.9489 2 100.082 2.8L100.532 3.05C100.999 3.28333 101.949 3.68333 103.382 4.25C104.482 4.71666 105.199 5.11667 105.532 5.45L107.382 6.6C108.182 7.1 108.582 7.71667 108.582 8.45C108.582 9.21667 108.232 10.2 107.532 11.4C106.832 12.5667 105.882 13.7333 104.682 14.9C104.449 15.1333 104.082 15.4167 103.582 15.75C103.082 16.0833 102.449 16.5167 101.682 17.05L100.532 17.85C100.899 17.85 101.482 17.95 102.282 18.15C104.016 18.85 105.266 19.8333 106.032 21.1L107.282 22.45C107.782 23.15 107.982 24.0333 107.882 25.1C107.849 25.8667 107.616 26.6167 107.182 27.35L106.232 28.9L106.182 29.05C105.682 29.5833 105.049 30.2333 104.282 31C103.549 31.7333 102.666 32.5833 101.632 33.55C99.7656 34.95 97.7822 35.8667 95.6822 36.3C95.0822 36.4333 94.5322 36.5333 94.0322 36.6C93.5656 36.6667 93.1489 36.7 92.7822 36.7ZM93.8322 29.15C93.5322 29.15 93.2989 28.8667 93.1322 28.3C93.1322 28.1667 93.1156 28 93.0822 27.8C93.0489 27.5667 92.9989 27.2833 92.9322 26.95C92.8656 26.6167 92.7989 26.3167 92.7322 26.05C92.6989 25.7833 92.6989 25.5333 92.7322 25.3C92.6989 25.2 92.6822 25.1 92.6822 25C92.6822 24.9 92.6822 24.8 92.6822 24.7C92.6822 24.5333 92.6822 24.3833 92.6822 24.25C92.7156 24.0833 92.7489 23.9167 92.7822 23.75C92.8822 22.9833 92.9322 22.4667 92.9322 22.2C92.9322 22.0667 92.9822 21.8167 93.0822 21.45C93.1822 21.05 93.3156 20.5167 93.4822 19.85C93.7489 18.9167 93.9656 18.0333 94.1322 17.2C94.2989 16.3667 94.4489 15.5667 94.5822 14.8C94.7156 14.2667 94.8489 13.5667 94.9822 12.7C95.1489 11.8333 95.3322 10.8167 95.5322 9.65C95.5656 9.25 95.6322 8.7 95.7322 8C95.8656 7.26667 96.0322 6.38333 96.2322 5.35C96.4322 4.51667 96.7656 4.1 97.2322 4.1C97.5989 4.1 97.7822 4.35 97.7822 4.85C97.7822 4.95 97.7822 5.05 97.7822 5.15C97.7822 5.25 97.7656 5.35 97.7322 5.45C97.7322 5.78333 97.6322 6.5 97.4322 7.6L97.0322 9.8C96.9322 10.8333 96.2322 14.3833 94.9322 20.45C94.7989 20.8833 94.6489 21.5167 94.4822 22.35C94.3489 22.8833 94.2989 23.7333 94.3322 24.9C94.3322 25.0667 94.3489 25.3833 94.3822 25.85C94.4489 26.2833 94.5156 26.8667 94.5822 27.6V28C94.5822 28.7667 94.3322 29.15 93.8322 29.15Z" fill="white"/>
<path d="M67.6053 53.0502C65.4719 53.0502 64.4053 51.8335 64.4053 49.4002C64.4053 45.2669 68.3219 40.5835 76.1553 35.3502C76.3219 35.2835 76.5219 35.1335 76.7553 34.9002C76.7219 33.9335 76.7219 33.0502 76.7553 32.2502C76.7886 31.4502 76.8553 30.7335 76.9553 30.1002C76.6886 30.3669 76.4053 30.6335 76.1053 30.9002C75.8386 31.1669 75.5386 31.4335 75.2053 31.7002C74.2719 32.4335 73.4219 32.8002 72.6553 32.8002C70.9886 32.8002 70.1553 31.2335 70.1553 28.1002C70.1553 24.6335 70.5386 21.9835 71.3053 20.1502C71.4719 19.8502 71.7053 19.7002 72.0053 19.7002C72.6719 19.7002 73.0053 20.1169 73.0053 20.9502C73.0053 21.5835 72.8553 22.5335 72.5553 23.8002C72.1553 25.4335 71.9553 26.6835 71.9553 27.5502C71.9553 29.4835 72.3719 30.4502 73.2053 30.4502C73.8719 30.4502 74.7219 29.8502 75.7553 28.6502C76.1553 28.2169 76.5219 27.7835 76.8553 27.3502C77.1886 26.9169 77.4719 26.4835 77.7053 26.0502L78.2553 25.1002L79.5053 22.5002L79.9053 21.6002C80.0719 21.3002 80.2886 21.1502 80.5553 21.1502C81.0553 21.1502 81.3053 21.3835 81.3053 21.8502C81.3053 21.9169 81.2719 22.0169 81.2053 22.1502L81.1053 22.3002V22.6002C80.5386 23.7335 80.0386 25.2669 79.6053 27.2002C79.2053 29.1335 78.8886 31.4835 78.6553 34.2502L81.3553 33.3502C81.8219 33.3502 82.0553 33.6169 82.0553 34.1502C82.0553 34.4502 81.9053 34.6335 81.6053 34.7002C80.8719 34.9335 79.8219 35.2335 78.4553 35.6002C78.3219 36.7002 78.1886 37.6669 78.0553 38.5002C77.9219 39.3335 77.7886 40.0335 77.6553 40.6002C76.8553 43.8669 75.6719 46.6335 74.1053 48.9002C72.1386 51.6669 69.9719 53.0502 67.6053 53.0502ZM67.6553 51.6502C69.3886 51.6502 71.1053 50.3169 72.8053 47.6502C73.5386 46.4835 74.1386 45.2835 74.6053 44.0502C75.1053 42.8169 75.4719 41.5669 75.7053 40.3002C75.7386 39.8669 75.7386 39.3835 75.7053 38.8502C75.5719 38.2502 75.3553 37.9502 75.0553 37.9502C74.9219 37.9502 74.7719 38.0002 74.6053 38.1002L74.5053 38.0502C68.7053 41.9835 65.8053 45.7835 65.8053 49.4502C65.8053 50.9169 66.4219 51.6502 67.6553 51.6502Z" fill="white"/>
<path d="M53.3779 36.7C53.2113 36.7 53.0446 36.6833 52.8779 36.65C52.7446 36.65 52.6113 36.6333 52.4779 36.6L50.7779 35.75C50.5113 35.6167 50.3779 35.3333 50.3779 34.9C50.3779 33.9667 50.6613 33.5 51.2279 33.5C51.3946 33.5 51.6613 33.6333 52.0279 33.9C52.3946 34.1667 52.6446 34.3 52.7779 34.3H52.8279C53.1279 34.3 53.5446 34.2833 54.0779 34.25C54.6113 34.2167 55.2779 34.1 56.0779 33.9C57.9779 33.4 59.8279 32.55 61.6279 31.35C61.9279 31.15 63.2446 29.8833 65.5779 27.55C65.7446 27.2833 65.9279 26.95 66.1279 26.55C66.3279 26.1167 66.5446 25.6167 66.7779 25.05C66.8113 24.65 66.4113 23.8833 65.5779 22.75C64.9779 21.95 64.6279 21.5 64.5279 21.4C64.3946 21.3 64.2279 21.1833 64.0279 21.05C63.8279 20.9167 63.5613 20.7833 63.2279 20.65L62.4779 20.3L61.8279 20.35C61.5613 20.1833 61.2279 20.0833 60.8279 20.05C60.3279 20.05 59.9279 19.9833 59.6279 19.85C59.4946 19.8167 59.3279 19.7667 59.1279 19.7C58.7946 19.5667 58.5946 19.3 58.5279 18.9L58.4779 18.85C58.4446 18.45 58.5946 17.7833 58.9279 16.85C59.2946 16.6167 59.7113 16.35 60.1779 16.05C60.6446 15.75 61.1779 15.4 61.7779 15C62.0779 14.8333 62.4613 14.6 62.9279 14.3C63.4279 13.9667 63.9779 13.5333 64.5779 13L65.4279 12.25C65.4613 12.2167 65.5779 12.1333 65.7779 12C66.0113 11.8333 66.1779 11.6167 66.2779 11.35L66.7779 10.6L67.0279 10.15C67.2279 9.78333 67.3279 9.55 67.3279 9.45L67.1779 8.5V8.45C67.1779 8.25 66.9779 8.08333 66.5779 7.95C65.8446 7.75 65.3946 7.6 65.2279 7.5C64.9613 7.33333 64.4946 7.1 63.8279 6.8C63.1613 6.46667 62.3113 6.06667 61.2779 5.6C59.6779 4.86666 58.4113 4.11667 57.4779 3.35C57.1779 3.08333 56.7779 2.65 56.2779 2.05C56.0779 1.88333 55.9779 1.63333 55.9779 1.3C55.9779 0.999998 56.0779 0.716665 56.2779 0.45C56.4779 0.15 56.6779 0 56.8779 0C56.9446 0 57.0446 0.0333327 57.1779 0.0999985C57.5779 0.399999 57.9446 0.799999 58.2779 1.3C58.7446 1.5 59.5446 2 60.6779 2.8L61.1279 3.05C61.5946 3.28333 62.5446 3.68333 63.9779 4.25C65.0779 4.71666 65.7946 5.11667 66.1279 5.45L67.9779 6.6C68.7779 7.1 69.1779 7.71667 69.1779 8.45C69.1779 9.21667 68.8279 10.2 68.1279 11.4C67.4279 12.5667 66.4779 13.7333 65.2779 14.9C65.0446 15.1333 64.6779 15.4167 64.1779 15.75C63.6779 16.0833 63.0446 16.5167 62.2779 17.05L61.1279 17.85C61.4946 17.85 62.0779 17.95 62.8779 18.15C64.6113 18.85 65.8613 19.8333 66.6279 21.1L67.8779 22.45C68.3779 23.15 68.5779 24.0333 68.4779 25.1C68.4446 25.8667 68.2113 26.6167 67.7779 27.35L66.8279 28.9L66.7779 29.05C66.2779 29.5833 65.6446 30.2333 64.8779 31C64.1446 31.7333 63.2613 32.5833 62.2279 33.55C60.3613 34.95 58.3779 35.8667 56.2779 36.3C55.6779 36.4333 55.1279 36.5333 54.6279 36.6C54.1613 36.6667 53.7446 36.7 53.3779 36.7ZM54.4279 29.15C54.1279 29.15 53.8946 28.8667 53.7279 28.3C53.7279 28.1667 53.7113 28 53.6779 27.8C53.6446 27.5667 53.5946 27.2833 53.5279 26.95C53.4613 26.6167 53.3946 26.3167 53.3279 26.05C53.2946 25.7833 53.2946 25.5333 53.3279 25.3C53.2946 25.2 53.2779 25.1 53.2779 25C53.2779 24.9 53.2779 24.8 53.2779 24.7C53.2779 24.5333 53.2779 24.3833 53.2779 24.25C53.3113 24.0833 53.3446 23.9167 53.3779 23.75C53.4779 22.9833 53.5279 22.4667 53.5279 22.2C53.5279 22.0667 53.5779 21.8167 53.6779 21.45C53.7779 21.05 53.9113 20.5167 54.0779 19.85C54.3446 18.9167 54.5613 18.0333 54.7279 17.2C54.8946 16.3667 55.0446 15.5667 55.1779 14.8C55.3113 14.2667 55.4446 13.5667 55.5779 12.7C55.7446 11.8333 55.9279 10.8167 56.1279 9.65C56.1613 9.25 56.2279 8.7 56.3279 8C56.4613 7.26667 56.6279 6.38333 56.8279 5.35C57.0279 4.51667 57.3613 4.1 57.8279 4.1C58.1946 4.1 58.3779 4.35 58.3779 4.85C58.3779 4.95 58.3779 5.05 58.3779 5.15C58.3779 5.25 58.3613 5.35 58.3279 5.45C58.3279 5.78333 58.2279 6.5 58.0279 7.6L57.6279 9.8C57.5279 10.8333 56.8279 14.3833 55.5279 20.45C55.3946 20.8833 55.2446 21.5167 55.0779 22.35C54.9446 22.8833 54.8946 23.7333 54.9279 24.9C54.9279 25.0667 54.9446 25.3833 54.9779 25.85C55.0446 26.2833 55.1113 26.8667 55.1779 27.6V28C55.1779 28.7667 54.9279 29.15 54.4279 29.15Z" fill="white"/>
<path d="M30.4693 36.05C30.1693 36.05 29.8526 35.9167 29.5193 35.65C29.2193 35.4167 29.0859 35.15 29.1193 34.85C29.4859 29.9167 30.7859 23.8833 33.0193 16.75C34.0859 13.4833 35.5859 9.68334 37.5193 5.35C37.6193 5.11667 37.7859 5 38.0193 5C38.4526 5 38.6693 5.23333 38.6693 5.7C38.6693 5.76667 38.6526 5.83333 38.6193 5.9C38.6193 5.96667 38.6026 6.03333 38.5693 6.1C37.6359 7.83333 36.4193 11.4167 34.9193 16.85C34.5193 18.3167 34.1693 19.6333 33.8693 20.8C33.5693 21.9667 33.3193 22.9833 33.1193 23.85C35.7859 20.9833 38.3359 19.25 40.7693 18.65L41.2193 18.6C41.6193 18.5333 41.9193 18.7167 42.1193 19.15C42.3526 19.55 42.4193 19.95 42.3193 20.35C41.9526 21.5167 41.0193 22.7833 39.5193 24.15C38.4193 25.1167 37.5693 25.8667 36.9693 26.4C36.3693 26.9333 36.0359 27.25 35.9693 27.35C36.0359 28.1833 37.0859 29.5167 39.1193 31.35C39.2526 31.4833 39.4193 31.6 39.6193 31.7C39.8193 31.7667 40.0359 31.8333 40.2693 31.9C40.5026 31.9667 40.7026 32.05 40.8693 32.15C41.0693 32.2167 41.2359 32.3 41.3693 32.4C41.5359 32.5667 41.6193 32.7333 41.6193 32.9C41.6193 33.2 41.4859 33.4833 41.2193 33.75C40.9859 34.0167 40.7193 34.15 40.4193 34.15C40.3193 34.15 40.2026 34.1167 40.0693 34.05C38.9359 33.25 37.8359 32.3167 36.7693 31.25C35.7026 30.15 34.6859 28.9333 33.7193 27.6C33.3526 27.6667 32.8693 27.8333 32.2693 28.1C32.0693 29.4333 31.8859 30.6833 31.7193 31.85C31.5859 33.0167 31.4526 34.1167 31.3193 35.15C31.2859 35.75 31.0026 36.05 30.4693 36.05ZM33.8193 25.4C33.9193 25.4 33.9859 25.3833 34.0193 25.35C35.2526 25.35 36.6693 24.7 38.2693 23.4C39.5359 22.3333 40.1693 21.5333 40.1693 21C40.1359 20.8 39.9859 20.7 39.7193 20.7C38.9193 20.7 36.9859 22.25 33.9193 25.35L33.8193 25.4Z" fill="white"/>
<path d="M13.431 32.2501C12.931 32.2501 12.7476 31.8001 12.881 30.9001C12.981 29.7334 13.1476 28.3001 13.381 26.6001C13.6476 24.8668 13.9643 22.8668 14.331 20.6001C14.4976 20.1001 14.7643 19.8501 15.131 19.8501C15.5976 19.8501 15.831 20.0668 15.831 20.5001C15.831 20.5334 15.831 20.6001 15.831 20.7001C15.831 20.7668 15.8143 20.8501 15.781 20.9501C15.7143 21.2501 15.6476 21.5834 15.581 21.9501C15.5476 22.2834 15.531 22.6501 15.531 23.0501C15.531 23.5168 15.5476 24.0168 15.581 24.5501C15.6476 25.0834 15.7476 25.6501 15.881 26.2501C16.081 26.2501 16.8976 25.5334 18.331 24.1001C19.7643 22.7334 20.931 21.9168 21.831 21.6501V21.6001C21.931 21.5668 22.031 21.5501 22.131 21.5501C22.231 21.5501 22.3143 21.5501 22.381 21.5501C23.0143 21.5501 23.431 21.8501 23.631 22.4501L24.331 27.1001C24.631 29.1334 25.181 30.1501 25.981 30.1501C26.3143 30.1501 26.6476 30.0334 26.981 29.8001C27.4476 29.4668 27.8976 29.1168 28.331 28.7501C28.7643 28.3501 29.1476 27.9334 29.481 27.5001C29.681 27.4334 29.8143 27.4001 29.881 27.4001C30.1143 27.4001 30.231 27.5501 30.231 27.8501C30.231 28.0501 30.0976 28.3168 29.831 28.6501C29.3976 29.1834 28.9476 29.7334 28.481 30.3001C28.0143 30.8334 27.5476 31.2501 27.081 31.5501C26.4476 31.9168 25.9143 32.1001 25.481 32.1001C24.581 32.1001 23.8976 31.3668 23.431 29.9001L22.581 25.8501C22.281 24.4834 21.8976 23.8668 21.431 24.0001C21.3976 24.0001 21.3476 24.0001 21.281 24.0001C21.2476 23.9668 21.1976 23.9501 21.131 23.9501C20.9976 23.9501 20.831 23.9834 20.631 24.0501C20.4643 24.1168 20.2976 24.2334 20.131 24.4001L18.931 25.6501C17.8976 26.7168 17.031 27.7501 16.331 28.7501C15.631 29.7501 15.0643 30.6834 14.631 31.5501C14.3643 32.0168 13.9643 32.2501 13.431 32.2501Z" fill="white"/>
<path d="M0.7 33.4001C0.233333 33.4001 0 33.0001 0 32.2001C0 31.4667 0.25 31.0501 0.75 30.9501L3.15 30.4001C3.31667 30.4001 3.51667 30.3501 3.75 30.2501C4.01667 30.1501 4.21667 30.1001 4.35 30.1001C4.51667 29.8667 4.66667 29.6001 4.8 29.3001C4.96667 28.9667 5.11667 28.6167 5.25 28.2501C5.41667 27.3501 5.58333 26.3501 5.75 25.2501C5.95 24.1167 6.15 22.8834 6.35 21.5501C6.55 20.0167 6.75 18.3667 6.95 16.6001C7.18333 14.8334 7.41667 12.9334 7.65 10.9001C7.88333 8.26673 8.03333 6.18339 8.1 4.65006C8.13333 4.51673 8.13333 4.43339 8.1 4.40006C7.83333 4.36673 7.58333 4.35006 7.35 4.35006C7.15 4.31672 6.96667 4.30006 6.8 4.30006C6.63333 4.30006 6.36667 4.35006 6 4.45006C5.7 4.58339 5.35 4.65006 4.95 4.65006C4.55 4.65006 4.35 4.30006 4.35 3.60006C4.35 2.60006 4.63333 2.10006 5.2 2.10006C5.43333 2.10006 5.71667 2.05006 6.05 1.95006C6.21667 1.91673 6.38333 1.90006 6.55 1.90006C6.71667 1.86673 6.86667 1.85006 7 1.85006H9.1C9.26667 1.78339 9.45 1.80006 9.65 1.90006L10.35 1.85006H11.2C11.3667 1.85006 11.5333 1.86673 11.7 1.90006C11.8667 1.90006 12.0333 1.91673 12.2 1.95006C12.5667 2.05006 12.8333 2.10006 13 2.10006C13.4333 2.10006 13.65 2.48339 13.65 3.25006C13.65 4.18339 13.4 4.65006 12.9 4.65006C12.5667 4.65006 12.25 4.58339 11.95 4.45006C11.55 4.35006 11.25 4.30006 11.05 4.30006H10.4L9.8 4.35006L9.75 4.50006L9.7 4.70006C9.66667 5.83339 9.6 6.91672 9.5 7.95006C9.43333 8.98339 9.33333 9.98339 9.2 10.9501C8.96667 12.7834 8.75 14.6001 8.55 16.4001C8.38333 18.1667 8.21667 19.9001 8.05 21.6001C7.81667 24.3334 7.36667 26.7834 6.7 28.9501C6.66667 29.1834 6.61667 29.4001 6.55 29.6001C6.48333 29.7667 6.41667 29.9334 6.35 30.1001L7.9 29.9501C7.96667 29.9501 8.05 29.9501 8.15 29.9501C8.28333 29.9501 8.41667 29.9667 8.55 30.0001C8.68333 30.0334 8.78333 30.0667 8.85 30.1001C8.95 30.1001 9.03333 30.1001 9.1 30.1001C9.53333 30.1001 9.75 30.4334 9.75 31.1001C9.75 32.0667 9.45 32.5501 8.85 32.5501H8.3L7.8 32.5001L5.55 32.4501C5.35 32.4501 4.55 32.6001 3.15 32.9001L0.7 33.4001Z" fill="white"/>
</svg>
